<svg width="512" height="512" viewBox="0 0 512 512" fill="none" xmlns="http://www.w3.org/2000/svg">
  <defs>
    <radialGradient id="instaBg512" cx="30%" cy="30%" r="120%">
      <stop offset="0%" style="stop-color:#fdf047"/>
      <stop offset="25%" style="stop-color:#fd7c3c"/>
      <stop offset="50%" style="stop-color:#e91e63"/>
      <stop offset="75%" style="stop-color:#8e24aa"/>
      <stop offset="100%" style="stop-color:#3f51b5"/>
    </radialGradient>
    <linearGradient id="gloss512" x1="0%" y1="0%" x2="100%" y2="100%">
      <stop offset="0%" style="stop-color:rgba(255,255,255,0.3)"/>
      <stop offset="50%" style="stop-color:rgba(255,255,255,0.1)"/>
      <stop offset="100%" style="stop-color:rgba(255,255,255,0)"/>
    </linearGradient>
    <filter id="shadow512" x="-50%" y="-50%" width="200%" height="200%">
      <feDropShadow dx="0" dy="8" stdDeviation="16" flood-color="rgba(0,0,0,0.3)"/>
    </filter>
  </defs>
  
  <!-- Background -->
  <rect width="512" height="512" rx="128" fill="url(#instaBg512)" filter="url(#shadow512)"/>
  
  <!-- Central F -->
  <g transform="translate(256, 256)">
    <path d="M -80 -120 L -80 120 L -40 120 L -40 20 L 40 20 L 40 -20 L -40 -20 L -40 -80 L 60 -80 L 60 -120 Z" 
          fill="#ffffff" opacity="0.95"/>
    
    <!-- 3D depth effect -->
    <path d="M -80 -120 L -70 -110 L 70 -110 L 70 -70 L 60 -80 L -30 -80 L -30 -10 L 50 -10 L 50 30 L -30 30 L -30 130 L -80 120 Z" 
          fill="rgba(255,255,255,0.3)"/>
    
    <!-- Decorative elements -->
    <circle cx="-100" cy="-60" r="8" fill="rgba(255,255,255,0.8)"/>
    <circle cx="-120" cy="-20" r="6" fill="rgba(255,255,255,0.6)"/>
    <circle cx="-130" cy="20" r="4" fill="rgba(255,255,255,0.4)"/>
    
    <circle cx="100" cy="-40" r="8" fill="rgba(255,255,255,0.8)"/>
    <circle cx="120" cy="0" r="6" fill="rgba(255,255,255,0.6)"/>
    <circle cx="130" cy="40" r="4" fill="rgba(255,255,255,0.4)"/>
    
    <path d="M -140 -80 Q -100 -60 -60 -40 Q -20 -20 20 0" 
          stroke="rgba(255,255,255,0.4)" stroke-width="3" stroke-linecap="round" fill="none"/>
    <path d="M 140 -60 Q 100 -40 60 -20 Q 20 0 -20 20" 
          stroke="rgba(255,255,255,0.4)" stroke-width="3" stroke-linecap="round" fill="none"/>
    
    <ellipse cx="0" cy="140" rx="60" ry="8" fill="rgba(255,255,255,0.3)"/>
  </g>
  
  <!-- Glossy overlay -->
  <rect width="512" height="512" rx="128" fill="url(#gloss512)"/>
  <ellipse cx="180" cy="180" rx="120" ry="80" fill="rgba(255,255,255,0.15)" opacity="0.8"/>
</svg>